<?xml version="1.0" encoding="iso-8859-1"?>
<!-- Generator: Adobe Illustrator 19.0.0, SVG Export Plug-In . SVG Version: 6.00 Build 0)  -->
<svg version="1.1" id="Layer_1" xmlns="http://www.w3.org/2000/svg" xmlns:xlink="http://www.w3.org/1999/xlink" x="0px" y="0px"
	 viewBox="0 0 512 512" style="enable-background:new 0 0 512 512;" xml:space="preserve">
<path style="fill:#4D4D4D;" d="M301.011,0h-33.758l33.758,70.735l33.758-36.977C334.769,15.191,319.578,0,301.011,0z"/>
<path style="fill:#737373;" d="M301.011,33.758l-61.89,33.758l-61.89-33.758C177.231,15.191,192.422,0,210.989,0h56.264
	C285.82,0,301.011,15.191,301.011,33.758z"/>
<path style="fill:#FE834D;" d="M427.604,33.758h-33.758V512h33.758c37.134,0,67.517-30.382,67.517-67.516V101.275
	C495.121,64.141,464.738,33.758,427.604,33.758z"/>
<path style="fill:#FEA680;" d="M461.363,101.275l-45.011,171.604l45.011,171.604c0,37.134-30.382,67.516-67.517,67.516H84.396
	c-37.134,0-67.516-30.382-67.516-67.516V101.275c0-37.134,30.382-67.516,67.516-67.516h309.451
	C430.98,33.758,461.363,64.141,461.363,101.275z"/>
<path style="fill:#EEEEEE;" d="M427.604,67.516h-33.758v410.725h33.758c18.612,0,33.758-15.146,33.758-33.758V101.275
	C461.363,82.663,446.216,67.516,427.604,67.516z"/>
<path style="fill:#FFFFFF;" d="M427.604,101.275v343.209c0,18.612-15.146,33.758-33.758,33.758H84.396
	c-18.612,0-33.758-15.146-33.758-33.758V101.275c0-18.612,15.146-33.758,33.758-33.758h309.451
	C412.458,67.516,427.604,82.663,427.604,101.275z"/>
<g>
	<path style="fill:#B9B9B9;" d="M256,154.725c-4.661,0-8.44-3.779-8.44-8.44v-33.758c0-4.661,3.779-8.44,8.44-8.44
		c4.661,0,8.44,3.779,8.44,8.44v33.758C264.44,150.947,260.661,154.725,256,154.725z"/>
	<path style="fill:#B9B9B9;" d="M184.272,157.069c-2.917,0-5.754-1.513-7.317-4.221l-8.44-14.617
		c-2.33-4.036-0.947-9.198,3.089-11.528c4.036-2.33,9.198-0.947,11.528,3.089l8.44,14.617c2.33,4.036,0.947,9.198-3.089,11.528
		C187.155,156.705,185.703,157.069,184.272,157.069z"/>
	<path style="fill:#B9B9B9;" d="M131.742,209.584c-1.431,0-2.883-0.365-4.212-1.132l-14.617-8.44
		c-4.036-2.33-5.419-7.492-3.089-11.528c2.33-4.037,7.491-5.42,11.528-3.089l14.617,8.44c4.036,2.33,5.419,7.492,3.089,11.528
		C137.494,208.07,134.658,209.584,131.742,209.584z"/>
	<path style="fill:#B9B9B9;" d="M129.407,281.319H95.648c-4.661,0-8.44-3.779-8.44-8.44c0-4.661,3.779-8.44,8.44-8.44h33.758
		c4.661,0,8.44,3.779,8.44,8.44C137.846,277.54,134.067,281.319,129.407,281.319z"/>
	<path style="fill:#B9B9B9;" d="M117.139,361.496c-2.917,0-5.754-1.514-7.317-4.221c-2.33-4.036-0.947-9.198,3.089-11.528
		l14.617-8.44c4.036-2.33,9.198-0.947,11.528,3.089c2.33,4.036,0.947,9.198-3.089,11.528l-14.617,8.44
		C120.022,361.131,118.571,361.496,117.139,361.496z"/>
	<path style="fill:#B9B9B9;" d="M175.816,420.189c-1.431,0-2.883-0.365-4.212-1.132c-4.036-2.33-5.419-7.492-3.089-11.528
		l8.44-14.617c2.33-4.038,7.491-5.42,11.528-3.089c4.036,2.33,5.419,7.492,3.089,11.528l-8.44,14.617
		C181.57,418.675,178.733,420.189,175.816,420.189z"/>
	<path style="fill:#B9B9B9;" d="M256,441.67c-4.661,0-8.44-3.779-8.44-8.44v-33.758c0-4.661,3.779-8.44,8.44-8.44
		c4.661,0,8.44,3.779,8.44,8.44v33.758C264.44,437.892,260.661,441.67,256,441.67z"/>
	<path style="fill:#B9B9B9;" d="M336.184,420.189c-2.917,0-5.754-1.514-7.317-4.221l-8.44-14.617
		c-2.33-4.036-0.947-9.198,3.089-11.528c4.036-2.33,9.198-0.949,11.528,3.089l8.44,14.617c2.33,4.036,0.947,9.198-3.089,11.528
		C339.067,419.824,337.615,420.189,336.184,420.189z"/>
	<path style="fill:#B9B9B9;" d="M394.861,361.496c-1.431,0-2.883-0.365-4.212-1.132l-14.617-8.44
		c-4.036-2.33-5.419-7.492-3.089-11.528c2.33-4.038,7.491-5.42,11.528-3.089l14.617,8.44c4.036,2.33,5.419,7.492,3.089,11.528
		C400.615,359.982,397.778,361.496,394.861,361.496z"/>
	<path style="fill:#B9B9B9;" d="M416.352,281.319h-33.758c-4.661,0-8.44-3.779-8.44-8.44c0-4.661,3.779-8.44,8.44-8.44h33.758
		c4.661,0,8.44,3.779,8.44,8.44C424.791,277.54,421.013,281.319,416.352,281.319z"/>
	<path style="fill:#B9B9B9;" d="M380.258,209.584c-2.917,0-5.754-1.513-7.317-4.221c-2.33-4.036-0.948-9.198,3.089-11.528
		l14.617-8.44c4.036-2.33,9.198-0.947,11.528,3.089c2.33,4.036,0.947,9.198-3.089,11.528l-14.617,8.44
		C383.141,209.219,381.691,209.584,380.258,209.584z"/>
	<path style="fill:#B9B9B9;" d="M327.728,157.069c-1.431,0-2.883-0.365-4.212-1.132c-4.036-2.33-5.419-7.492-3.089-11.528
		l8.44-14.617c2.33-4.037,7.491-5.42,11.528-3.089c4.036,2.33,5.419,7.492,3.089,11.528l-8.44,14.617
		C333.482,155.556,330.645,157.069,327.728,157.069z"/>
</g>
<!-- <path style="fill:#4D4D4D;" d="M348.835,281.319H256c-4.661,0-8.44-3.779-8.44-8.44v-59.077c0-4.661,3.779-8.44,8.44-8.44
	c4.661,0,8.44,3.779,8.44,8.44v50.637h84.396c4.661,0,8.44,3.779,8.44,8.44C357.275,277.54,353.496,281.319,348.835,281.319z"/> -->
<g>
</g>
<g>
</g>
<g>
</g>
<g>
</g>
<g>
</g>
<g>
</g>
<g>
</g>
<g>
</g>
<g>
</g>
<g>
</g>
<g>
</g>
<g>
</g>
<g>
</g>
<g>
</g>
<g>
</g>
</svg>
